ply
format ascii 1.0
comment Created by Blender 2.77 (sub 0) - www.blender.org, source file: 'untitled.blend'
element vertex 240
property float x
property float y
property float z
property float nx
property float ny
property float nz
element face 80
property list uchar uint vertex_indices
end_header
1.003684 0.967650 -0.009385 0.102381 -0.315090 -0.943523
1.429006 0.658638 0.139961 0.102381 -0.315090 -0.943523
0.841228 0.467654 0.139960 0.102381 -0.315090 -0.943523
1.727291 0.441924 0.543395 0.700224 -0.268032 -0.661699
1.429006 0.658638 0.139961 0.700224 -0.268032 -0.661699
1.854331 0.967650 0.464879 0.700224 -0.268032 -0.661699
1.003684 0.967650 -0.009385 -0.268034 -0.194736 -0.943523
0.841228 0.467654 0.139960 -0.268034 -0.194736 -0.943523
0.477954 0.967650 0.139963 -0.268034 -0.194736 -0.943523
1.003684 0.967650 -0.009385 -0.268034 0.194736 -0.943523
0.477954 0.967650 0.139963 -0.268034 0.194736 -0.943523
0.841228 1.467645 0.139960 -0.268034 0.194736 -0.943523
1.003684 0.967650 -0.009385 0.102381 0.315090 -0.943523
0.841228 1.467645 0.139960 0.102381 0.315090 -0.943523
1.429006 1.276661 0.139961 0.102381 0.315090 -0.943523
1.727291 0.441924 0.543395 0.904989 -0.268032 -0.330385
1.854331 0.967650 0.464879 0.904989 -0.268032 -0.330385
1.954741 0.658637 0.990615 0.904989 -0.268032 -0.330385
0.727296 0.117000 0.543395 0.024747 -0.943521 -0.330386
1.266552 0.158638 0.464877 0.024747 -0.943521 -0.330386
1.003684 -0.032350 0.990615 0.024747 -0.943521 -0.330386
0.109257 0.967650 0.543399 -0.889697 -0.315095 -0.330385
0.315494 0.467653 0.464879 -0.889697 -0.315095 -0.330385
0.052626 0.658637 0.990615 -0.889697 -0.315095 -0.330385
0.727296 1.818299 0.543395 -0.574602 0.748784 -0.330387
0.315494 1.467646 0.464879 -0.574602 0.748784 -0.330387
0.415898 1.776666 0.990615 -0.574602 0.748784 -0.330387
1.727291 1.493375 0.543395 0.534576 0.777865 -0.330386
1.266552 1.776661 0.464877 0.534576 0.777865 -0.330386
1.591469 1.776666 0.990615 0.534576 0.777865 -0.330386
1.727291 0.441924 0.543395 0.802609 -0.583126 -0.125627
1.954741 0.658637 0.990615 0.802609 -0.583126 -0.125627
1.591469 0.158633 0.990615 0.802609 -0.583126 -0.125627
0.727296 0.117000 0.543395 -0.306569 -0.943522 -0.125629
1.003684 -0.032350 0.990615 -0.306569 -0.943522 -0.125629
0.415898 0.158633 0.990615 -0.306569 -0.943522 -0.125629
0.109257 0.967650 0.543399 -0.992077 -0.000000 -0.125628
0.052626 0.658637 0.990615 -0.992077 -0.000000 -0.125628
0.052626 1.276662 0.990615 -0.992077 -0.000000 -0.125628
0.727296 1.818299 0.543395 -0.306569 0.943522 -0.125628
0.415898 1.776666 0.990615 -0.306569 0.943522 -0.125628
1.003684 1.967649 0.990615 -0.306569 0.943522 -0.125628
1.727291 1.493375 0.543395 0.802609 0.583127 -0.125627
1.591469 1.776666 0.990615 0.802609 0.583127 -0.125627
1.954741 1.276662 0.990615 0.802609 0.583127 -0.125627
1.280072 0.117000 1.437835 0.408946 -0.628425 0.661699
1.691873 0.467653 1.516351 0.408946 -0.628425 0.661699
1.166139 0.467654 1.841269 0.408946 -0.628425 0.661699
0.280076 0.441924 1.437834 -0.471300 -0.583122 0.661699
0.740815 0.158638 1.516353 -0.471300 -0.583122 0.661699
0.578361 0.658638 1.841269 -0.471300 -0.583122 0.661699
0.280076 1.493375 1.437834 -0.700224 0.268032 0.661699
0.153036 0.967650 1.516351 -0.700224 0.268032 0.661699
0.578361 1.276661 1.841269 -0.700224 0.268032 0.661699
1.280072 1.818299 1.437835 0.038530 0.748779 0.661699
0.740815 1.776661 1.516353 0.038530 0.748779 0.661699
1.166139 1.467645 1.841269 0.038530 0.748779 0.661699
1.898110 0.967650 1.437830 0.724042 0.194736 0.661695
1.691873 1.467646 1.516351 0.724042 0.194736 0.661695
1.529413 0.967650 1.841267 0.724042 0.194736 0.661695
1.529413 0.967650 1.841267 0.268034 0.194737 0.943523
1.166139 1.467645 1.841269 0.268034 0.194737 0.943523
1.003684 0.967650 1.990615 0.268034 0.194737 0.943523
1.529413 0.967650 1.841267 0.491119 0.356821 0.794657
1.691873 1.467646 1.516351 0.491119 0.356821 0.794657
1.166139 1.467645 1.841269 0.491119 0.356821 0.794657
1.691873 1.467646 1.516351 0.408946 0.628425 0.661699
1.280072 1.818299 1.437835 0.408946 0.628425 0.661699
1.166139 1.467645 1.841269 0.408946 0.628425 0.661699
1.166139 1.467645 1.841269 -0.102381 0.315090 0.943523
0.578361 1.276661 1.841269 -0.102381 0.315090 0.943523
1.003684 0.967650 1.990615 -0.102381 0.315090 0.943523
1.166139 1.467645 1.841269 -0.187594 0.577345 0.794658
0.740815 1.776661 1.516353 -0.187594 0.577345 0.794658
0.578361 1.276661 1.841269 -0.187594 0.577345 0.794658
0.740815 1.776661 1.516353 -0.471300 0.583122 0.661699
0.280076 1.493375 1.437834 -0.471300 0.583122 0.661699
0.578361 1.276661 1.841269 -0.471300 0.583122 0.661699
0.578361 1.276661 1.841269 -0.331305 0.000000 0.943524
0.578361 0.658638 1.841269 -0.331305 0.000000 0.943524
1.003684 0.967650 1.990615 -0.331305 0.000000 0.943524
0.578361 1.276661 1.841269 -0.607060 0.000000 0.794656
0.153036 0.967650 1.516351 -0.607060 0.000000 0.794656
0.578361 0.658638 1.841269 -0.607060 0.000000 0.794656
0.153036 0.967650 1.516351 -0.700224 -0.268032 0.661699
0.280076 0.441924 1.437834 -0.700224 -0.268032 0.661699
0.578361 0.658638 1.841269 -0.700224 -0.268032 0.661699
0.578361 0.658638 1.841269 -0.102381 -0.315090 0.943523
1.166139 0.467654 1.841269 -0.102381 -0.315090 0.943523
1.003684 0.967650 1.990615 -0.102381 -0.315090 0.943523
0.578361 0.658638 1.841269 -0.187594 -0.577345 0.794658
0.740815 0.158638 1.516353 -0.187594 -0.577345 0.794658
1.166139 0.467654 1.841269 -0.187594 -0.577345 0.794658
0.740815 0.158638 1.516353 0.038530 -0.748779 0.661699
1.280072 0.117000 1.437835 0.038530 -0.748779 0.661699
1.166139 0.467654 1.841269 0.038530 -0.748779 0.661699
1.166139 0.467654 1.841269 0.268034 -0.194737 0.943523
1.529413 0.967650 1.841267 0.268034 -0.194737 0.943523
1.003684 0.967650 1.990615 0.268034 -0.194737 0.943523
1.166139 0.467654 1.841269 0.491119 -0.356821 0.794657
1.691873 0.467653 1.516351 0.491119 -0.356821 0.794657
1.529413 0.967650 1.841267 0.491119 -0.356821 0.794657
1.691873 0.467653 1.516351 0.724042 -0.194736 0.661695
1.898110 0.967650 1.437830 0.724042 -0.194736 0.661695
1.529413 0.967650 1.841267 0.724042 -0.194736 0.661695
1.954741 1.276662 0.990615 0.889697 0.315095 0.330385
1.691873 1.467646 1.516351 0.889697 0.315095 0.330385
1.898110 0.967650 1.437830 0.889697 0.315095 0.330385
1.954741 1.276662 0.990615 0.794656 0.577348 0.187595
1.591469 1.776666 0.990615 0.794656 0.577348 0.187595
1.691873 1.467646 1.516351 0.794656 0.577348 0.187595
1.591469 1.776666 0.990615 0.574602 0.748784 0.330387
1.280072 1.818299 1.437835 0.574602 0.748784 0.330387
1.691873 1.467646 1.516351 0.574602 0.748784 0.330387
1.003684 1.967649 0.990615 -0.024747 0.943521 0.330386
0.740815 1.776661 1.516353 -0.024747 0.943521 0.330386
1.280072 1.818299 1.437835 -0.024747 0.943521 0.330386
1.003684 1.967649 0.990615 -0.303531 0.934171 0.187597
0.415898 1.776666 0.990615 -0.303531 0.934171 0.187597
0.740815 1.776661 1.516353 -0.303531 0.934171 0.187597
0.415898 1.776666 0.990615 -0.534576 0.777865 0.330386
0.280076 1.493375 1.437834 -0.534576 0.777865 0.330386
0.740815 1.776661 1.516353 -0.534576 0.777865 0.330386
0.052626 1.276662 0.990615 -0.904989 0.268031 0.330385
0.153036 0.967650 1.516351 -0.904989 0.268031 0.330385
0.280076 1.493375 1.437834 -0.904989 0.268031 0.330385
0.052626 1.276662 0.990615 -0.982246 0.000000 0.187599
0.052626 0.658637 0.990615 -0.982246 0.000000 0.187599
0.153036 0.967650 1.516351 -0.982246 0.000000 0.187599
0.052626 0.658637 0.990615 -0.904989 -0.268031 0.330385
0.280076 0.441924 1.437834 -0.904989 -0.268031 0.330385
0.153036 0.967650 1.516351 -0.904989 -0.268031 0.330385
0.415898 0.158633 0.990615 -0.534576 -0.777865 0.330387
0.740815 0.158638 1.516353 -0.534576 -0.777865 0.330387
0.280076 0.441924 1.437834 -0.534576 -0.777865 0.330387
0.415898 0.158633 0.990615 -0.303531 -0.934171 0.187597
1.003684 -0.032350 0.990615 -0.303531 -0.934171 0.187597
0.740815 0.158638 1.516353 -0.303531 -0.934171 0.187597
1.003684 -0.032350 0.990615 -0.024747 -0.943521 0.330386
1.280072 0.117000 1.437835 -0.024747 -0.943521 0.330386
0.740815 0.158638 1.516353 -0.024747 -0.943521 0.330386
1.591469 0.158633 0.990615 0.574602 -0.748784 0.330388
1.691873 0.467653 1.516351 0.574602 -0.748784 0.330388
1.280072 0.117000 1.437835 0.574602 -0.748784 0.330388
1.591469 0.158633 0.990615 0.794656 -0.577348 0.187595
1.954741 0.658637 0.990615 0.794656 -0.577348 0.187595
1.691873 0.467653 1.516351 0.794656 -0.577348 0.187595
1.954741 0.658637 0.990615 0.889697 -0.315095 0.330385
1.898110 0.967650 1.437830 0.889697 -0.315095 0.330385
1.691873 0.467653 1.516351 0.889697 -0.315095 0.330385
1.591469 1.776666 0.990615 0.306569 0.943522 0.125628
1.003684 1.967649 0.990615 0.306569 0.943522 0.125628
1.280072 1.818299 1.437835 0.306569 0.943522 0.125628
1.591469 1.776666 0.990615 0.303531 0.934171 -0.187597
1.266552 1.776661 0.464877 0.303531 0.934171 -0.187597
1.003684 1.967649 0.990615 0.303531 0.934171 -0.187597
1.266552 1.776661 0.464877 0.024747 0.943521 -0.330386
0.727296 1.818299 0.543395 0.024747 0.943521 -0.330386
1.003684 1.967649 0.990615 0.024747 0.943521 -0.330386
0.415898 1.776666 0.990615 -0.802609 0.583126 0.125627
0.052626 1.276662 0.990615 -0.802609 0.583126 0.125627
0.280076 1.493375 1.437834 -0.802609 0.583126 0.125627
0.415898 1.776666 0.990615 -0.794656 0.577348 -0.187595
0.315494 1.467646 0.464879 -0.794656 0.577348 -0.187595
0.052626 1.276662 0.990615 -0.794656 0.577348 -0.187595
0.315494 1.467646 0.464879 -0.889697 0.315095 -0.330385
0.109257 0.967650 0.543399 -0.889697 0.315095 -0.330385
0.052626 1.276662 0.990615 -0.889697 0.315095 -0.330385
0.052626 0.658637 0.990615 -0.802609 -0.583126 0.125627
0.415898 0.158633 0.990615 -0.802609 -0.583126 0.125627
0.280076 0.441924 1.437834 -0.802609 -0.583126 0.125627
0.052626 0.658637 0.990615 -0.794656 -0.577348 -0.187595
0.315494 0.467653 0.464879 -0.794656 -0.577348 -0.187595
0.415898 0.158633 0.990615 -0.794656 -0.577348 -0.187595
0.315494 0.467653 0.464879 -0.574602 -0.748784 -0.330388
0.727296 0.117000 0.543395 -0.574602 -0.748784 -0.330388
0.415898 0.158633 0.990615 -0.574602 -0.748784 -0.330388
1.003684 -0.032350 0.990615 0.306569 -0.943522 0.125629
1.591469 0.158633 0.990615 0.306569 -0.943522 0.125629
1.280072 0.117000 1.437835 0.306569 -0.943522 0.125629
1.003684 -0.032350 0.990615 0.303531 -0.934171 -0.187597
1.266552 0.158638 0.464877 0.303531 -0.934171 -0.187597
1.591469 0.158633 0.990615 0.303531 -0.934171 -0.187597
1.266552 0.158638 0.464877 0.534576 -0.777865 -0.330387
1.727291 0.441924 0.543395 0.534576 -0.777865 -0.330387
1.591469 0.158633 0.990615 0.534576 -0.777865 -0.330387
1.954741 0.658637 0.990615 0.992077 0.000000 0.125628
1.954741 1.276662 0.990615 0.992077 0.000000 0.125628
1.898110 0.967650 1.437830 0.992077 0.000000 0.125628
1.954741 0.658637 0.990615 0.982246 0.000000 -0.187599
1.854331 0.967650 0.464879 0.982246 0.000000 -0.187599
1.954741 1.276662 0.990615 0.982246 0.000000 -0.187599
1.854331 0.967650 0.464879 0.904989 0.268032 -0.330385
1.727291 1.493375 0.543395 0.904989 0.268032 -0.330385
1.954741 1.276662 0.990615 0.904989 0.268032 -0.330385
1.429006 1.276661 0.139961 0.471300 0.583122 -0.661699
1.266552 1.776661 0.464877 0.471300 0.583122 -0.661699
1.727291 1.493375 0.543395 0.471300 0.583122 -0.661699
1.429006 1.276661 0.139961 0.187594 0.577345 -0.794658
0.841228 1.467645 0.139960 0.187594 0.577345 -0.794658
1.266552 1.776661 0.464877 0.187594 0.577345 -0.794658
0.841228 1.467645 0.139960 -0.038530 0.748779 -0.661699
0.727296 1.818299 0.543395 -0.038530 0.748779 -0.661699
1.266552 1.776661 0.464877 -0.038530 0.748779 -0.661699
0.841228 1.467645 0.139960 -0.408946 0.628425 -0.661698
0.315494 1.467646 0.464879 -0.408946 0.628425 -0.661698
0.727296 1.818299 0.543395 -0.408946 0.628425 -0.661698
0.841228 1.467645 0.139960 -0.491119 0.356821 -0.794657
0.477954 0.967650 0.139963 -0.491119 0.356821 -0.794657
0.315494 1.467646 0.464879 -0.491119 0.356821 -0.794657
0.477954 0.967650 0.139963 -0.724042 0.194736 -0.661695
0.109257 0.967650 0.543399 -0.724042 0.194736 -0.661695
0.315494 1.467646 0.464879 -0.724042 0.194736 -0.661695
0.477954 0.967650 0.139963 -0.724042 -0.194736 -0.661695
0.315494 0.467653 0.464879 -0.724042 -0.194736 -0.661695
0.109257 0.967650 0.543399 -0.724042 -0.194736 -0.661695
0.477954 0.967650 0.139963 -0.491119 -0.356821 -0.794657
0.841228 0.467654 0.139960 -0.491119 -0.356821 -0.794657
0.315494 0.467653 0.464879 -0.491119 -0.356821 -0.794657
0.841228 0.467654 0.139960 -0.408946 -0.628425 -0.661698
0.727296 0.117000 0.543395 -0.408946 -0.628425 -0.661698
0.315494 0.467653 0.464879 -0.408946 -0.628425 -0.661698
1.854331 0.967650 0.464879 0.700224 0.268032 -0.661699
1.429006 1.276661 0.139961 0.700224 0.268032 -0.661699
1.727291 1.493375 0.543395 0.700224 0.268032 -0.661699
1.854331 0.967650 0.464879 0.607060 0.000000 -0.794656
1.429006 0.658638 0.139961 0.607060 0.000000 -0.794656
1.429006 1.276661 0.139961 0.607060 0.000000 -0.794656
1.429006 0.658638 0.139961 0.331305 0.000000 -0.943524
1.003684 0.967650 -0.009385 0.331305 0.000000 -0.943524
1.429006 1.276661 0.139961 0.331305 0.000000 -0.943524
0.841228 0.467654 0.139960 -0.038530 -0.748779 -0.661699
1.266552 0.158638 0.464877 -0.038530 -0.748779 -0.661699
0.727296 0.117000 0.543395 -0.038530 -0.748779 -0.661699
0.841228 0.467654 0.139960 0.187594 -0.577345 -0.794658
1.429006 0.658638 0.139961 0.187594 -0.577345 -0.794658
1.266552 0.158638 0.464877 0.187594 -0.577345 -0.794658
1.429006 0.658638 0.139961 0.471300 -0.583122 -0.661699
1.727291 0.441924 0.543395 0.471300 -0.583122 -0.661699
1.266552 0.158638 0.464877 0.471300 -0.583122 -0.661699
3 0 1 2
3 3 4 5
3 6 7 8
3 9 10 11
3 12 13 14
3 15 16 17
3 18 19 20
3 21 22 23
3 24 25 26
3 27 28 29
3 30 31 32
3 33 34 35
3 36 37 38
3 39 40 41
3 42 43 44
3 45 46 47
3 48 49 50
3 51 52 53
3 54 55 56
3 57 58 59
3 60 61 62
3 63 64 65
3 66 67 68
3 69 70 71
3 72 73 74
3 75 76 77
3 78 79 80
3 81 82 83
3 84 85 86
3 87 88 89
3 90 91 92
3 93 94 95
3 96 97 98
3 99 100 101
3 102 103 104
3 105 106 107
3 108 109 110
3 111 112 113
3 114 115 116
3 117 118 119
3 120 121 122
3 123 124 125
3 126 127 128
3 129 130 131
3 132 133 134
3 135 136 137
3 138 139 140
3 141 142 143
3 144 145 146
3 147 148 149
3 150 151 152
3 153 154 155
3 156 157 158
3 159 160 161
3 162 163 164
3 165 166 167
3 168 169 170
3 171 172 173
3 174 175 176
3 177 178 179
3 180 181 182
3 183 184 185
3 186 187 188
3 189 190 191
3 192 193 194
3 195 196 197
3 198 199 200
3 201 202 203
3 204 205 206
3 207 208 209
3 210 211 212
3 213 214 215
3 216 217 218
3 219 220 221
3 222 223 224
3 225 226 227
3 228 229 230
3 231 232 233
3 234 235 236
3 237 238 239
